<?xml version="1.0" standalone="no"?>
<!DOCTYPE svg PUBLIC "-//W3C//DTD SVG 1.1//EN" "http://www.w3.org/Graphics/SVG/1.1/DTD/svg11.dtd" >
<svg xmlns="http://www.w3.org/2000/svg" xmlns:svg="http://www.w3.org/2000/svg" xmlns:xlink="http://www.w3.org/1999/xlink" viewBox="0 0 2048 2048"><path d="M669.5 452.0Q613.5 454.0 578.5 394.0Q576.5 391.0 574.5 390.0Q572.5 389.0 570.5 390.0Q567.5 390.0 567.5 394.0Q365.5 446.0 273.5 449.0Q226.5 451.0 200.5 437.0Q176.5 426.0 176.5 405.0Q175.5 375.0 230.5 355.5Q285.5 336.0 385.5 323.0Q479.5 302.0 522.5 290.0Q560.5 280.0 563.5 281.0Q560.5 212.0 575.5 173.5Q590.5 135.0 623.5 135.0Q645.5 133.0 664.5 166.0Q683.5 200.0 697.5 250.0Q796.5 234.0 861.5 221.0Q966.5 203.0 978.5 202.0H980.5Q980.5 162.0 992.5 135.0Q1004.5 108.0 1027.5 108.0Q1051.5 106.0 1091.5 183.0Q1265.5 157.0 1488.5 104.0Q1549.5 113.0 1551.5 154.0Q1554.5 236.0 1121.5 303.0Q1122.5 321.0 1106.5 346.0Q1090.5 371.0 1060.5 394.0Q1021.5 396.0 993.5 320.0L854.5 340.0Q784.5 351.0 767.5 352.0Q761.5 352.0 761.5 351.0Q745.5 449.0 669.5 452.0ZM230.5 1221.0Q185.5 1222.0 159.5 1166.0Q157.5 1138.0 176.5 1119.0Q195.5 1100.0 226.5 1092.0L338.5 996.0Q300.5 993.0 261.5 967.0Q217.5 937.0 184.5 876.0Q182.5 823.0 248.5 808.0Q416.5 886.0 444.5 885.0Q457.5 875.0 463.5 868.0Q468.5 864.0 470.5 863.0Q412.5 838.0 304.5 809.0L303.5 783.0Q302.5 754.0 409.5 741.0Q493.5 743.0 548.5 771.0Q548.5 768.0 562.5 746.5Q576.5 725.0 599.5 689.0V680.0Q359.5 699.0 360.5 721.0Q331.5 764.0 287.5 765.0Q218.5 756.0 216.5 712.0Q215.5 685.0 340.5 560.0Q400.5 464.0 444.5 463.0Q484.5 479.0 485.5 510.0Q475.5 559.0 442.5 613.0Q619.5 553.0 677.5 551.0Q743.5 548.0 767.5 638.0Q772.5 772.0 421.5 1118.0Q302.5 1218.0 230.5 1221.0ZM1788.5 1061.0Q1557.5 1069.0 1331.5 987.0Q1343.5 999.0 1353.5 1017.0Q1355.5 1088.0 1070.5 1139.0Q752.5 1220.0 643.5 1223.0Q552.5 1223.0 551.5 1189.0L550.5 1176.0Q549.5 1144.0 735.5 1093.5Q921.5 1043.0 1284.5 970.0Q1285.5 970.0 1285.5 970.0Q1195.5 934.0 1105.5 883.0Q1050.5 833.0 1048.5 791.0Q1060.5 718.0 1102.5 717.0Q1117.5 716.0 1129.5 733.0Q1141.5 750.0 1148.5 773.0Q1243.5 821.0 1260.5 820.0Q1357.5 693.0 1356.5 685.0V679.0H1355.5Q1157.5 705.0 1099.5 707.0Q1078.5 707.0 1063.5 700.5Q1048.5 694.0 1044.5 680.0L1043.5 669.0Q1042.5 623.0 1243.5 576.0Q1438.5 538.0 1473.5 537.0Q1540.5 535.0 1563.5 606.0Q1565.5 663.0 1402.5 863.0Q1534.5 903.0 1856.5 943.0Q1888.5 975.0 1888.5 997.0Q1890.5 1022.0 1862.5 1038.0Q1834.5 1054.0 1788.5 1061.0ZM1381.5 856.0Q1381.5 856.0 1382.5 856.0Q1381.5 856.0 1381.5 856.0ZM925.5 1941.0Q915.5 1935.0 839.5 1930.0Q735.5 1943.0 711.5 1944.0Q638.5 1930.0 637.5 1886.0Q636.5 1848.0 669.5 1819.0L700.5 1822.0Q727.5 1822.0 854.5 1805.0Q885.5 1808.0 909.5 1807.0H910.5Q911.5 1807.0 912.0 1806.5Q912.5 1806.0 911.5 1800.0V1797.0Q909.5 1723.0 861.5 1505.0L860.5 1495.0Q859.5 1471.0 864.5 1444.0Q549.5 1496.0 507.5 1497.0Q446.5 1499.0 411.5 1454.0Q409.5 1404.0 481.5 1385.0L512.5 1389.0Q961.5 1272.0 1195.5 1264.0Q1232.5 1263.0 1256.0 1278.0Q1279.5 1293.0 1280.5 1321.0Q1282.5 1392.0 1055.5 1416.0Q1005.5 1418.0 986.5 1427.5Q967.5 1437.0 968.5 1463.0Q967.5 1463.0 967.5 1463.0Q1021.5 1578.0 1054.5 1813.0Q1058.5 1907.0 925.5 1941.0ZM1640.5 1801.0Q1577.5 1803.0 1332.5 1704.0Q1246.5 1682.0 1245.5 1652.0Q1243.5 1585.0 1386.5 1557.0Q1735.5 1623.0 1735.5 1654.0Q1736.5 1654.0 1744.5 1669.5Q1752.5 1685.0 1761.5 1709.0Q1750.5 1753.0 1719.0 1776.5Q1687.5 1800.0 1640.5 1801.0ZM401.5 1888.0Q367.5 1890.0 350.5 1850.0Q347.5 1789.0 506.5 1667.0Q532.5 1625.0 603.5 1601.0Q642.5 1610.0 643.5 1629.0V1637.0Q554.5 1883.0 401.5 1888.0Z" fill="black"></path></svg>